<svg width="121" height="122" viewBox="0 0 121 122" fill="none" xmlns="http://www.w3.org/2000/svg">
<g id="Group">
<g id="Group_2">
<g id="Group_3">
<g id="Group_4">
<path id="Vector" d="M82.3058 42.3846C81.0069 42.3846 79.9562 41.3298 79.9562 40.0258V14.421C79.9562 9.34405 75.8458 5.2176 70.7887 5.2176H38.2346V27.3219C38.2346 28.6259 37.1839 29.6807 35.885 29.6807C34.5861 29.6807 33.5354 28.6259 33.5354 27.3219V2.8588C33.5354 1.55479 34.5861 0.5 35.885 0.5H70.7887C78.4379 0.5 84.6612 6.74763 84.6612 14.421V40.0258C84.6612 41.3298 83.6048 42.3846 82.3058 42.3846Z" fill="white"/>
</g>
<g id="Group_5">
<path id="Vector_2" d="M26.7175 87.8277H2.34382C1.04489 87.8277 -0.00579834 86.7729 -0.00579834 85.4689V50.423C-0.00579834 42.7497 6.21751 36.5021 13.861 36.5021H50.1617C51.4606 36.5021 52.5113 37.5569 52.5113 38.8609C52.5113 40.1649 51.4606 41.2197 50.1617 41.2197H13.861C8.80382 41.2197 4.69344 45.3461 4.69344 50.423V83.1043H26.7117C28.0106 83.1043 29.0613 84.1591 29.0613 85.4631C29.0671 86.7671 28.0107 87.8277 26.7175 87.8277Z" fill="white"/>
</g>
<g id="Group_6">
<path id="Vector_3" d="M84.6324 121.5H49.723C42.0737 121.5 35.8562 115.252 35.8562 107.573V82.206C35.8562 80.902 36.9069 79.8472 38.2058 79.8472C39.5047 79.8472 40.5554 80.902 40.5554 82.206V107.573C40.5554 112.65 44.6658 116.777 49.723 116.777H82.277V94.6664C82.277 93.3624 83.3277 92.3077 84.6266 92.3077C85.9256 92.3077 86.9763 93.3624 86.9763 94.6664V119.135C86.982 120.439 85.9256 121.5 84.6324 121.5Z" fill="white"/>
</g>
<g id="Group_7">
<path id="Vector_4" d="M106.651 85.4979H70.3557C69.0568 85.4979 68.0061 84.4431 68.0061 83.139C68.0061 81.835 69.0568 80.7803 70.3557 80.7803H106.651C111.708 80.7803 115.818 76.6538 115.818 71.5769V38.8898H93.7942C92.4952 38.8898 91.4446 37.835 91.4446 36.531C91.4446 35.227 92.4952 34.1722 93.7942 34.1722H118.168C119.467 34.1722 120.517 35.227 120.517 36.531V71.5711C120.523 79.2502 114.3 85.4979 106.651 85.4979Z" fill="white"/>
</g>
</g>
<g id="Group_8">
<path id="Vector_5" d="M53.9488 84.4489C52.7596 84.4489 51.7147 83.7013 51.3221 82.5711L43.9615 55.529L41.5657 66.5522C41.5542 66.6043 41.5368 66.6565 41.5253 66.7086C40.0589 71.7508 35.3828 75.2745 30.1524 75.2745H26.2499C24.951 75.2745 23.9003 74.2197 23.9003 72.9157V53.8193C23.9003 52.5153 24.951 51.4605 26.2499 51.4605C27.5488 51.4605 28.5995 52.5153 28.5995 53.8193V70.5511H30.1524C33.2814 70.5511 36.0871 68.4589 36.9935 65.4568L41.0461 46.8066C41.0577 46.7545 41.0692 46.7023 41.0865 46.6502C41.4271 45.4794 42.4721 44.6681 43.6902 44.6449C43.7133 44.6449 43.7306 44.6449 43.7537 44.6449C44.9429 44.6449 45.9878 45.3925 46.3804 46.5284L53.8795 74.0632L61.9329 41.9789C62.2851 40.7329 63.33 39.9215 64.5481 39.8867C64.5712 39.8867 64.6 39.8867 64.6231 39.8867C65.8124 39.8867 66.8573 40.6343 67.2498 41.7645C67.2787 41.8398 67.296 41.9152 67.3133 41.9905L74.9049 74.0748C75.2051 75.344 74.4257 76.6133 73.1614 76.9146C71.8914 77.2218 70.6328 76.4336 70.3326 75.1644L64.5654 50.794L56.639 82.3567C56.2869 83.6027 55.242 84.4141 54.0239 84.4489C54.0008 84.4489 53.9777 84.4489 53.9488 84.4489Z" fill="white"/>
</g>
<g id="Group_9">
<g id="Group_10">
<path id="Vector_6" d="M73.3 78.0854C72.1107 78.0854 71.0658 77.3377 70.6732 76.2018C70.6501 76.1323 70.6271 76.0569 70.6097 75.9874L66.2684 57.7951C65.9682 56.5258 66.7418 55.2566 68.0061 54.9494C69.2646 54.6423 70.5347 55.4247 70.8407 56.6939L73.4847 67.7693L75.6958 60.1539C77.1621 55.1117 81.8383 51.588 87.0686 51.588H94.2271C95.5261 51.588 96.5768 52.6428 96.5768 53.9468V73.0374C96.5768 74.3414 95.5261 75.3962 94.2271 75.3962C92.9282 75.3962 91.8775 74.3414 91.8775 73.0374V56.3056H87.0686C83.9108 56.3056 81.0878 58.4326 80.2103 61.4695L75.9671 76.0743C75.6265 77.245 74.5816 78.0506 73.3635 78.0796C73.3461 78.0854 73.3231 78.0854 73.3 78.0854Z" fill="white"/>
</g>
</g>
</g>
</g>
</svg>
